<?xml version="1.0" encoding="utf-8"?>
<!-- Generator: Adobe Illustrator 24.0.0, SVG Export Plug-In . SVG Version: 6.00 Build 0)  -->
<svg version="1.1" id="Capa_1" xmlns="http://www.w3.org/2000/svg" xmlns:xlink="http://www.w3.org/1999/xlink" x="0px" y="0px"
	 viewBox="0 0 305 131" style="enable-background:new 0 0 305 131;" xml:space="preserve">
<style type="text/css">
	.st0{fill:#001336;}
	.st1{fill:#0065E5;}
</style>
<g>
	<path class="st0" d="M38.4,73.7c1.1,0,2-0.3,2.7-0.9c0.7-0.6,1.1-1.4,1.1-2.5h5.7c0,1.5-0.4,2.9-1.3,4.2c-0.8,1.3-2,2.3-3.4,3
		c-1.4,0.7-3,1.1-4.7,1.1c-3.2,0-5.8-1-7.7-3.1c-1.9-2.1-2.8-4.9-2.8-8.5v-0.4c0-3.5,0.9-6.3,2.8-8.4c1.9-2.1,4.4-3.1,7.6-3.1
		c2.8,0,5.1,0.8,6.8,2.4c1.7,1.6,2.6,3.8,2.6,6.4h-5.7c0-1.2-0.4-2.1-1.1-2.9c-0.7-0.7-1.6-1.1-2.8-1.1c-1.4,0-2.5,0.5-3.2,1.5
		c-0.7,1-1.1,2.7-1.1,5v0.6c0,2.3,0.4,4,1.1,5C35.8,73.1,36.9,73.7,38.4,73.7z"/>
	<path class="st0" d="M49.5,66.6c0-2.2,0.4-4.3,1.3-6c0.9-1.8,2.1-3.1,3.7-4.1c1.6-1,3.5-1.4,5.7-1.4c3.1,0,5.6,0.9,7.5,2.8
		c1.9,1.9,3,4.4,3.2,7.6l0,1.5c0,3.5-1,6.3-2.9,8.4c-1.9,2.1-4.5,3.2-7.8,3.2c-3.3,0-5.9-1-7.8-3.1c-1.9-2.1-2.9-4.9-2.9-8.5V66.6z
		 M55.6,67c0,2.2,0.4,3.8,1.2,4.9c0.8,1.1,2,1.7,3.5,1.7c1.5,0,2.6-0.6,3.4-1.7c0.8-1.1,1.2-2.9,1.2-5.4c0-2.1-0.4-3.7-1.2-4.9
		c-0.8-1.2-2-1.7-3.5-1.7c-1.5,0-2.6,0.6-3.4,1.7C56,62.8,55.6,64.6,55.6,67z"/>
	<path class="st0" d="M83.3,73.7c1.1,0,2-0.3,2.7-0.9c0.7-0.6,1.1-1.4,1.1-2.5h5.7c0,1.5-0.4,2.9-1.3,4.2s-2,2.3-3.4,3
		c-1.4,0.7-3,1.1-4.7,1.1c-3.2,0-5.8-1-7.7-3.1c-1.9-2.1-2.8-4.9-2.8-8.5v-0.4c0-3.5,0.9-6.3,2.8-8.4c1.9-2.1,4.4-3.1,7.6-3.1
		c2.8,0,5.1,0.8,6.8,2.4c1.7,1.6,2.6,3.8,2.6,6.4h-5.7c0-1.2-0.4-2.1-1.1-2.9c-0.7-0.7-1.6-1.1-2.8-1.1c-1.4,0-2.5,0.5-3.2,1.5
		c-0.7,1-1.1,2.7-1.1,5v0.6c0,2.3,0.4,4,1.1,5C80.7,73.1,81.8,73.7,83.3,73.7z"/>
	<path class="st0" d="M94.4,66.6c0-2.2,0.4-4.3,1.3-6c0.9-1.8,2.1-3.1,3.7-4.1c1.6-1,3.5-1.4,5.7-1.4c3.1,0,5.6,0.9,7.5,2.8
		c1.9,1.9,3,4.4,3.2,7.6l0,1.5c0,3.5-1,6.3-2.9,8.4c-1.9,2.1-4.5,3.2-7.8,3.2s-5.9-1-7.8-3.1c-1.9-2.1-2.9-4.9-2.9-8.5V66.6z
		 M100.4,67c0,2.2,0.4,3.8,1.2,4.9c0.8,1.1,2,1.7,3.5,1.7c1.5,0,2.6-0.6,3.4-1.7c0.8-1.1,1.2-2.9,1.2-5.4c0-2.1-0.4-3.7-1.2-4.9
		c-0.8-1.2-2-1.7-3.5-1.7c-1.5,0-2.6,0.6-3.4,1.7C100.9,62.8,100.4,64.6,100.4,67z"/>
	<path class="st0" d="M131,71.9c0-0.7-0.4-1.3-1.1-1.7c-0.7-0.4-1.9-0.8-3.5-1.1c-5.4-1.1-8.1-3.4-8.1-6.9c0-2,0.8-3.7,2.5-5
		c1.7-1.3,3.8-2,6.5-2c2.9,0,5.2,0.7,6.9,2c1.7,1.4,2.6,3.1,2.6,5.3h-6.1c0-0.9-0.3-1.6-0.8-2.1c-0.6-0.6-1.4-0.8-2.6-0.8
		c-1,0-1.8,0.2-2.4,0.7c-0.6,0.5-0.8,1-0.8,1.8c0,0.7,0.3,1.2,1,1.6s1.7,0.8,3.2,1.1c1.5,0.3,2.8,0.6,3.8,1c3.2,1.2,4.8,3.2,4.8,6.1
		c0,2.1-0.9,3.7-2.7,5c-1.8,1.3-4.1,1.9-6.9,1.9c-1.9,0-3.6-0.3-5.1-1c-1.5-0.7-2.6-1.6-3.5-2.8c-0.8-1.2-1.3-2.5-1.3-3.8h5.7
		c0.1,1.1,0.5,1.9,1.2,2.5s1.7,0.9,3,0.9c1.2,0,2-0.2,2.6-0.7C130.7,73.1,131,72.6,131,71.9z"/>
	<path class="st1" d="M155.3,73.7c1.1,0,2-0.3,2.7-0.9c0.7-0.6,1.1-1.4,1.1-2.5h5.7c0,1.5-0.4,2.9-1.3,4.2s-2,2.3-3.4,3
		c-1.4,0.7-3,1.1-4.7,1.1c-3.2,0-5.8-1-7.7-3.1c-1.9-2.1-2.8-4.9-2.8-8.5v-0.4c0-3.5,0.9-6.3,2.8-8.4s4.4-3.1,7.6-3.1
		c2.8,0,5.1,0.8,6.8,2.4c1.7,1.6,2.6,3.8,2.6,6.4h-5.7c0-1.2-0.4-2.1-1.1-2.9c-0.7-0.7-1.6-1.1-2.8-1.1c-1.4,0-2.5,0.5-3.2,1.5
		c-0.7,1-1.1,2.7-1.1,5v0.6c0,2.3,0.4,4,1.1,5C152.8,73.1,153.9,73.7,155.3,73.7z"/>
	<path class="st1" d="M180.5,78.1c-0.3-0.5-0.5-1.2-0.6-2c-1.5,1.6-3.4,2.4-5.7,2.4c-2.2,0-4.1-0.6-5.5-1.9
		c-1.5-1.3-2.2-2.9-2.2-4.9c0-2.4,0.9-4.2,2.7-5.5c1.8-1.3,4.4-1.9,7.7-1.9h2.8V63c0-1-0.3-1.9-0.8-2.5c-0.5-0.6-1.4-0.9-2.5-0.9
		c-1,0-1.8,0.2-2.4,0.7c-0.6,0.5-0.9,1.2-0.9,2H167c0-1.3,0.4-2.5,1.2-3.6c0.8-1.1,2-2,3.4-2.6c1.5-0.6,3.1-1,5-1
		c2.8,0,5,0.7,6.6,2.1c1.6,1.4,2.5,3.4,2.5,5.9v9.8c0,2.2,0.3,3.8,0.9,4.9v0.4H180.5z M175.5,73.9c0.9,0,1.7-0.2,2.5-0.6
		c0.8-0.4,1.3-0.9,1.7-1.6v-3.9h-2.3c-3,0-4.6,1-4.8,3.1l0,0.4c0,0.8,0.3,1.4,0.8,1.9C173.9,73.7,174.6,73.9,175.5,73.9z"/>
	<path class="st1" d="M209.9,67c0,3.5-0.8,6.3-2.4,8.4c-1.6,2.1-3.7,3.2-6.4,3.2c-2.3,0-4.1-0.8-5.5-2.4v10.7h-6.1V55.5h5.6l0.2,2.2
		c1.5-1.8,3.4-2.6,5.7-2.6c2.8,0,5,1,6.5,3.1c1.5,2.1,2.3,4.9,2.3,8.5V67z M203.9,66.6c0-2.1-0.4-3.7-1.1-4.9s-1.8-1.7-3.3-1.7
		c-1.9,0-3.2,0.7-3.9,2.2v9.3c0.7,1.5,2.1,2.2,4,2.2C202.4,73.7,203.9,71.3,203.9,66.6z"/>
	<path class="st1" d="M212.8,49.6c0-0.9,0.3-1.7,0.9-2.2c0.6-0.6,1.4-0.9,2.5-0.9c1,0,1.9,0.3,2.5,0.9c0.6,0.6,0.9,1.3,0.9,2.2
		c0,0.9-0.3,1.7-0.9,2.3c-0.6,0.6-1.4,0.9-2.5,0.9c-1,0-1.8-0.3-2.5-0.9C213.1,51.3,212.8,50.5,212.8,49.6z M219.2,78.1h-6.1V55.5
		h6.1V78.1z"/>
	<path class="st1" d="M230.6,49.9v5.6h3.9v4.4h-3.9v11.3c0,0.8,0.2,1.4,0.5,1.8c0.3,0.4,0.9,0.5,1.8,0.5c0.7,0,1.3,0,1.8-0.1V78
		c-1.2,0.4-2.4,0.5-3.7,0.5c-4.2,0-6.4-2.1-6.5-6.4V59.9h-3.3v-4.4h3.3v-5.6H230.6z"/>
	<path class="st1" d="M250.1,78.1c-0.3-0.5-0.5-1.2-0.6-2c-1.5,1.6-3.4,2.4-5.7,2.4c-2.2,0-4.1-0.6-5.5-1.9
		c-1.5-1.3-2.2-2.9-2.2-4.9c0-2.4,0.9-4.2,2.7-5.5c1.8-1.3,4.4-1.9,7.7-1.9h2.8V63c0-1-0.3-1.9-0.8-2.5c-0.5-0.6-1.4-0.9-2.5-0.9
		c-1,0-1.8,0.2-2.4,0.7c-0.6,0.5-0.9,1.2-0.9,2h-6.1c0-1.3,0.4-2.5,1.2-3.6c0.8-1.1,2-2,3.4-2.6c1.5-0.6,3.1-1,5-1
		c2.8,0,5,0.7,6.6,2.1c1.6,1.4,2.5,3.4,2.5,5.9v9.8c0,2.2,0.3,3.8,0.9,4.9v0.4H250.1z M245.1,73.9c0.9,0,1.7-0.2,2.5-0.6
		c0.8-0.4,1.3-0.9,1.7-1.6v-3.9H247c-3,0-4.6,1-4.8,3.1l0,0.4c0,0.8,0.3,1.4,0.8,1.9C243.4,73.7,244.2,73.9,245.1,73.9z"/>
	<path class="st1" d="M265.5,78.1h-6.1V46h6.1V78.1z"/>
	<path class="st0" d="M269.8,74.4c0-0.7,0.2-1.3,0.5-1.9c0.3-0.6,0.7-1,1.3-1.4c0.6-0.3,1.2-0.5,1.8-0.5s1.2,0.2,1.8,0.5
		c0.6,0.3,1,0.8,1.3,1.4c0.3,0.6,0.5,1.2,0.5,1.9c0,0.7-0.2,1.3-0.5,1.9c-0.3,0.6-0.8,1-1.3,1.4c-0.6,0.3-1.1,0.5-1.8,0.5
		c-0.6,0-1.2-0.2-1.8-0.5s-1-0.8-1.3-1.4C270,75.8,269.8,75.1,269.8,74.4z M276.4,74.4c0-0.6-0.1-1.1-0.4-1.6
		c-0.3-0.5-0.6-0.9-1.1-1.1c-0.5-0.3-1-0.4-1.5-0.4c-0.5,0-1,0.1-1.5,0.4c-0.5,0.3-0.8,0.7-1.1,1.1c-0.3,0.5-0.4,1-0.4,1.6
		s0.1,1.1,0.4,1.6c0.3,0.5,0.6,0.9,1.1,1.1c0.5,0.3,1,0.4,1.5,0.4s1-0.1,1.5-0.4c0.5-0.3,0.8-0.7,1.1-1.2
		C276.3,75.5,276.4,75,276.4,74.4z M272.7,74.8v1.7h-0.8v-4.3h1.4c0.5,0,0.9,0.1,1.2,0.3c0.3,0.2,0.4,0.6,0.4,1
		c0,0.4-0.2,0.7-0.6,0.9c0.2,0.1,0.3,0.2,0.4,0.4c0.1,0.2,0.1,0.4,0.1,0.7s0,0.5,0,0.6c0,0.1,0,0.2,0.1,0.3v0.1h-0.8
		c0-0.1-0.1-0.4-0.1-1c0-0.3-0.1-0.4-0.2-0.6c-0.1-0.1-0.3-0.2-0.6-0.2H272.7z M272.7,74.2h0.7c0.2,0,0.5-0.1,0.6-0.2
		c0.2-0.1,0.2-0.2,0.2-0.4c0-0.2-0.1-0.4-0.2-0.5s-0.3-0.2-0.6-0.2h-0.7V74.2z"/>
</g>
</svg>
